<svg xmlns="http://www.w3.org/2000/svg" viewBox="0 0 164.14 124.2"><defs><style>.cls-1{fill:#fff;}</style></defs><title>Fichier 1</title><g id="Calque_2" data-name="Calque 2"><g id="Calque_1-2" data-name="Calque 1"><rect width="164.14" height="124.2" rx="18.07" transform="translate(164.14 124.2) rotate(180)"/><g id="Calque_2-2" data-name="Calque 2"><g id="Calque_1-2-2" data-name="Calque 1-2"><path class="cls-1" d="M45.24,72.3h8.64l-3.4,5.89-1.74,3H40.09L30,98.65H22.23a1.47,1.47,0,0,1-1.45-1.48,1.45,1.45,0,0,1,.19-.71L67.45,16a1.39,1.39,0,0,1,1.88-.58,1.43,1.43,0,0,1,.59.58l3.92,6.78Z"/><path class="cls-1" d="M140.5,107.57H124.3l-1.7-3-3.41-5.9h7.34a.84.84,0,0,0,.81-.88.94.94,0,0,0-.11-.37l-9.35-16.19H62.09l1.74-3,3.4-5.89h45.48L99.58,49.48h7a5.79,5.79,0,0,1,5,2.88l26.72,46.29,3.53,6.83a1.43,1.43,0,0,1-.62,1.93A1.28,1.28,0,0,1,140.5,107.57Z"/><path class="cls-1" d="M101.87,71.29,80.18,33.71l-.7-1.17a.59.59,0,0,0-.8-.23.63.63,0,0,0-.23.23l-.69,1.17-3.91,6.81L55.51,72.3l-5.15,8.91-14,24.24a1.41,1.41,0,0,0,.45,1.92,1.39,1.39,0,0,0,.77.2h73.52l-1.76-3-3.41-5.9H58a4.27,4.27,0,0,1-4.27-4.26,4.34,4.34,0,0,1,.57-2.14l6.37-11,5.15-8.91,9.49-16.42a4.25,4.25,0,0,1,7.38,0l8.9,15.41"/><polygon class="cls-1" points="122.82 107.58 112.57 107.58 107.41 98.66 97.92 82.22 108.18 82.22 117.68 98.66 122.82 107.58"/></g></g></g></g></svg>