<?xml version="1.0" encoding="utf-8"?>
<!-- Generator: Adobe Illustrator 24.0.1, SVG Export Plug-In . SVG Version: 6.00 Build 0)  -->
<svg version="1.1" id="Calque_1" xmlns="http://www.w3.org/2000/svg" xmlns:xlink="http://www.w3.org/1999/xlink" x="0px" y="0px"
	 viewBox="0 0 164.1 152.2" style="enable-background:new 0 0 164.1 152.2;" xml:space="preserve">
<style type="text/css">
	.st0{fill:#FFFFFF;}
</style>
<path d="M146.1,152.2h-128c-10,0-18.1-9.9-18.1-22V22.9c0-12.2,8.1-22,18.1-22h128c10,0,18.1,9.9,18.1,22v107.3
	C164.1,142.3,156,152.2,146.1,152.2z"/>
<g id="Calque_2-2">
	<g id="Calque_1-2-2">
		<path class="st0" d="M45.9,87h8.6l-3.4,5.9l-1.7,3h-8.6l-10.1,17.5h-7.8c-0.8,0-1.5-0.7-1.5-1.5c0-0.2,0.1-0.5,0.2-0.7l46.5-80.5
			c0.4-0.7,1.2-0.9,1.9-0.6c0,0,0,0,0,0c0.2,0.1,0.5,0.3,0.6,0.6l3.9,6.8L45.9,87z"/>
		<path class="st0" d="M141.2,122.3H125l-1.7-3l-3.4-5.9h7.3c0.5,0,0.8-0.4,0.8-0.9c0,0,0,0,0,0c0-0.1,0-0.3-0.1-0.4l-9.3-16.2H62.8
			l1.7-3l3.4-5.9h45.5l-13.1-22.9h7c2.1,0,4,1.1,5,2.9l26.7,46.3l3.5,6.8c0.4,0.7,0.1,1.6-0.6,1.9c0,0,0,0,0,0
			C141.7,122.2,141.4,122.3,141.2,122.3z"/>
		<path class="st0" d="M102.6,86L80.9,48.4l-0.7-1.2c-0.2-0.3-0.5-0.4-0.8-0.2c-0.1,0.1-0.2,0.1-0.2,0.2l-0.7,1.2l-3.9,6.8L56.2,87
			L51,95.9l-14,24.2c-0.4,0.7-0.2,1.5,0.5,1.9c0.2,0.1,0.5,0.2,0.8,0.2h73.5l-1.8-3l-3.4-5.9H58.7c-2.4,0-4.3-1.9-4.3-4.3
			c0-0.8,0.2-1.5,0.6-2.1l6.4-11l5.2-8.9L76,70.6c1.2-2,3.8-2.7,5.8-1.6c0.7,0.4,1.2,0.9,1.6,1.6L92.3,86"/>
		<polygon class="st0" points="123.5,122.3 113.3,122.3 108.1,113.3 98.6,96.9 108.9,96.9 118.4,113.3 		"/>
	</g>
</g>
</svg>
