<svg xmlns="http://www.w3.org/2000/svg" viewBox="0 0 244.44 292.64"><defs><style>.cls-1{stroke:#fff;stroke-width:5px;}</style></defs><title>Fichier 1</title><g id="Calque_2" data-name="Calque 2"><g id="Calque_1-2" data-name="Calque 1"><path class="cls-1" d="M110.19,253.23v-4.7q0-115.67,0-231.31a28,28,0,0,1,.2-4.85,12,12,0,0,1,23.72,1.44c.08,1.24,0,2.49,0,3.74V252.83l.89.56c.83-1,1.58-2.1,2.48-3q40-42.24,80.07-84.46c.86-.91,1.72-1.81,2.59-2.7,5.77-6,12.94-6.56,18.13-1.52s4.8,12.12-1,18.2q-12.63,13.29-25.27,26.58-35.49,37.26-71,74.52c-11.68,12.26-26.15,12.24-37.87-.06Q54.94,230.22,6.7,179.53c-7.17-7.55-4.84-18.22,4.56-20.82,5-1.36,9,.34,12.47,4Q47.31,187.52,71,212.29l36.39,38.21C108.07,251.27,108.87,252,110.19,253.23Z"/></g></g></svg>