<svg xmlns="http://www.w3.org/2000/svg" viewBox="0 0 173.72 132.36"><defs><style>.cls-1{fill:#fff;}</style></defs><title>Fichier 2</title><g id="Calque_2" data-name="Calque 2"><g id="Calque_1-2" data-name="Calque 1"><path class="cls-1" d="M35.08,81.78H47.47l-4.88,8.45-2.5,4.33H27.7l-14.45,25H2.08a2.1,2.1,0,0,1-1.8-3.14L66.92,1a2,2,0,0,1,3.54,0l5.63,9.72Z"/><path class="cls-1" d="M171.66,132.36H148.44L146,128l-4.89-8.46h10.53a1.21,1.21,0,0,0,1-1.8l-13.4-23.21h-80l2.5-4.33,4.87-8.45h65.21L113,49.06h10a8.31,8.31,0,0,1,7.17,4.13l38.32,66.38,5.05,9.78A2.06,2.06,0,0,1,171.66,132.36Z"/><path class="cls-1" d="M116.28,80.33,85.17,26.45l-1-1.68a.84.84,0,0,0-1.47,0l-1,1.68L76.1,36.22,49.8,81.78,42.42,94.56,22.36,129.31a2,2,0,0,0,1.75,3.05H129.52L127,128l-4.88-8.46H53.34a6.12,6.12,0,0,1-5.3-9.18l9.14-15.83,7.38-12.78,13.6-23.54a6.1,6.1,0,0,1,10.59,0l12.76,22.09"/><polygon class="cls-1" points="146.32 132.36 131.62 132.36 124.22 119.57 110.62 96 125.33 96 138.94 119.57 146.32 132.36"/></g></g></svg>