<?xml version="1.0" encoding="utf-8"?>
<!-- Generator: Adobe Illustrator 24.0.1, SVG Export Plug-In . SVG Version: 6.00 Build 0)  -->
<svg version="1.1" id="Calque_1" xmlns="http://www.w3.org/2000/svg" xmlns:xlink="http://www.w3.org/1999/xlink" x="0px" y="0px"
	 viewBox="0 0 173.7 132.4" style="enable-background:new 0 0 173.7 132.4;" xml:space="preserve">
<style type="text/css">
	.st0{fill:#FFFFFF;}
</style>
<title>Fichier 2</title>
<path d="M23.1,4.7h128c10,0,18.1,8.1,18.1,18.1v88.1c0,10-8.1,18.1-18.1,18.1h-128c-10,0-18.1-8.1-18.1-18.1V22.8
	C5,12.8,13.1,4.7,23.1,4.7z"/>
<g id="Calque_2_1_">
	<g id="Calque_1-2">
		<path class="st0" d="M50.3,77h8.6l-3.4,5.9l-1.7,3h-8.6L35,103.3h-7.8c-0.8,0-1.5-0.7-1.4-1.5c0-0.2,0.1-0.5,0.2-0.7l46.5-80.5
			c0.4-0.7,1.2-0.9,1.9-0.6c0.2,0.1,0.5,0.3,0.6,0.6l3.9,6.8L50.3,77z"/>
		<path class="st0" d="M145.5,112.3h-16.2l-1.7-3l-3.4-5.9h7.3c0.5,0,0.8-0.4,0.8-0.9c0-0.1,0-0.3-0.1-0.4l-9.3-16.2H67.1l1.7-3
			l3.4-5.9h45.5l-13.1-22.8h7c2.1,0,4,1.1,5,2.9l26.7,46.3l3.5,6.8c0.4,0.7,0.1,1.6-0.6,1.9C146,112.2,145.8,112.3,145.5,112.3z"/>
		<path class="st0" d="M106.9,76L85.2,38.4l-0.7-1.2C84.4,37,84,36.8,83.7,37c-0.1,0.1-0.2,0.1-0.2,0.2l-0.7,1.2l-3.9,6.8L60.5,77
			l-5.1,8.9l-14,24.2c-0.4,0.7-0.2,1.5,0.5,1.9c0.2,0.1,0.5,0.2,0.8,0.2h73.5l-1.8-3l-3.4-5.9H63c-2.4,0-4.3-1.9-4.3-4.3
			c0-0.7,0.2-1.5,0.6-2.1l6.4-11l5.1-8.9l9.5-16.4c1.2-2,3.8-2.7,5.8-1.6c0.7,0.4,1.2,0.9,1.6,1.6L96.6,76"/>
		<polygon class="st0" points="127.9,112.3 117.6,112.3 112.4,103.4 103,86.9 113.2,86.9 122.7,103.4 		"/>
	</g>
</g>
</svg>
