<svg xmlns="http://www.w3.org/2000/svg" viewBox="0 0 174.47 133.11"><defs><style>.cls-1{fill:none;stroke:#fff;stroke-miterlimit:10;stroke-width:0.75px;}</style></defs><title>Fichier 3</title><g id="Calque_2" data-name="Calque 2"><g id="Calque_1-2" data-name="Calque 1"><path class="cls-1" d="M35.45,82.15H47.84L43,90.6l-2.5,4.33H28.07L13.62,120H2.46a2.09,2.09,0,0,1-1.8-3.14L67.3,1.4a2,2,0,0,1,3.54,0l5.62,9.73Z"/><path class="cls-1" d="M172,132.73H148.81l-2.49-4.33-4.89-8.46H152a1.21,1.21,0,0,0,1.06-1.8l-13.4-23.21h-80l2.5-4.33L67,82.15h65.22l-18.9-32.72h10a8.34,8.34,0,0,1,7.17,4.13l38.31,66.38,5.06,9.79A2.06,2.06,0,0,1,172,132.73Z"/><path class="cls-1" d="M116.65,80.7,85.54,26.83l-1-1.69a.84.84,0,0,0-1.46,0l-1,1.69L76.48,36.6,50.17,82.15,42.79,94.93,22.73,129.68a2,2,0,0,0,1.76,3h105.4l-2.5-4.33-4.88-8.46H53.71a6.12,6.12,0,0,1-5.29-9.18l9.13-15.83,7.39-12.78L78.53,58.61a6.12,6.12,0,0,1,10.6,0L101.89,80.7"/><polygon class="cls-1" points="146.7 132.73 131.99 132.73 124.6 119.94 111 96.37 125.7 96.37 139.32 119.94 146.7 132.73"/></g></g></svg>